<svg width="30" height="30" viewBox="0 0 30 30" fill="none" xmlns="http://www.w3.org/2000/svg">
<path d="M28.8804 24.0455C28.8804 24.5315 28.7687 25.031 28.5314 25.517C28.294 26.003 27.9869 26.462 27.582 26.894C26.8979 27.623 26.144 28.1495 25.2924 28.487C24.4547 28.8245 23.5472 29 22.57 29C21.1459 29 19.6242 28.676 18.0186 28.0145C16.4131 27.353 14.8076 26.462 13.216 25.3415C11.6105 24.2075 10.0887 22.952 8.63674 21.5615C7.19874 20.1575 5.90036 18.686 4.74158 17.147C3.59677 15.608 2.67534 14.069 2.0052 12.5435C1.33507 11.0045 1 9.533 1 8.129C1 7.211 1.16753 6.3335 1.5026 5.5235C1.83767 4.7 2.36819 3.944 3.10813 3.269C4.00164 2.4185 4.97892 2 6.01205 2C6.40296 2 6.79387 2.081 7.1429 2.243C7.50589 2.405 7.82699 2.648 8.0783 2.999L11.3173 7.4135C11.5686 7.751 11.7501 8.0615 11.8757 8.3585C12.0014 8.642 12.0712 8.9255 12.0712 9.182C12.0712 9.506 11.9735 9.83 11.778 10.1405C11.5965 10.451 11.3312 10.775 10.9962 11.099L9.93513 12.1655C9.78155 12.314 9.71175 12.4895 9.71175 12.7055C9.71175 12.8135 9.72571 12.908 9.75363 13.016C9.79552 13.124 9.8374 13.205 9.86532 13.286C10.1166 13.7315 10.5494 14.312 11.1637 15.014C11.792 15.716 12.4621 16.4315 13.1881 17.147C13.942 17.8625 14.6679 18.524 15.4079 19.1315C16.1339 19.7255 16.7342 20.1305 17.2089 20.3735C17.2787 20.4005 17.3624 20.441 17.4602 20.4815C17.5719 20.522 17.6836 20.5355 17.8092 20.5355C18.0465 20.5355 18.228 20.4545 18.3816 20.306L19.4427 19.2935C19.7917 18.956 20.1268 18.6995 20.4479 18.5375C20.769 18.3485 21.0901 18.254 21.4391 18.254C21.7044 18.254 21.9836 18.308 22.2907 18.4295C22.5979 18.551 22.919 18.7265 23.268 18.956L27.8891 22.1285C28.2521 22.3715 28.5034 22.655 28.657 22.9925C28.7966 23.33 28.8804 23.6675 28.8804 24.0455Z" stroke="#DDDFDF" stroke-miterlimit="10"/>
<path d="M24.0446 11.4511C24.0446 10.6411 23.3884 9.39907 22.4111 8.38657C21.5176 7.45507 20.3309 6.72607 19.1582 6.72607" stroke="#DDDFDF" stroke-linecap="round" stroke-linejoin="round"/>
<path d="M28.931 11.45C28.931 6.2255 24.5612 2 19.1582 2" stroke="#DDDFDF" stroke-linecap="round" stroke-linejoin="round"/>
</svg>
