<svg width="82" height="82" viewBox="0 0 82 82" fill="none" xmlns="http://www.w3.org/2000/svg">
<rect x="0.5" y="0.5" width="81" height="81" rx="40.5" stroke="url(#paint0_linear_379_4836)"/>
<rect x="0.5" y="0.5" width="81" height="81" rx="40.5" stroke="url(#paint1_linear_379_4836)"/>
<rect x="10.5" y="10.5" width="61" height="61" rx="30.5" stroke="url(#paint2_linear_379_4836)"/>
<rect x="10.5" y="10.5" width="61" height="61" rx="30.5" stroke="url(#paint3_linear_379_4836)"/>
<path fill-rule="evenodd" clip-rule="evenodd" d="M25.7 28.6749C25.7 27.9707 26.2708 27.3999 26.975 27.3999H44.825C45.5292 27.3999 46.1 27.9707 46.1 28.6749C46.1 29.3791 45.5292 29.9499 44.825 29.9499H44.4V53.3249C44.4 54.0291 43.8292 54.5999 43.125 54.5999H40.575C39.8709 54.5999 39.3 54.0291 39.3 53.3249V49.0749C39.3 48.3707 38.7292 47.7999 38.025 47.7999H33.775C33.0708 47.7999 32.5 48.3707 32.5 49.0749V53.3249C32.5 54.0291 31.9292 54.5999 31.225 54.5999H26.975C26.2708 54.5999 25.7 54.0291 25.7 53.3249C25.7 52.6207 26.2708 52.0499 26.975 52.0499H27.4V29.9499H26.975C26.2708 29.9499 25.7 29.3791 25.7 28.6749ZM30.8 33.3499C30.8 32.8805 31.1806 32.4999 31.65 32.4999H33.35C33.8195 32.4999 34.2 32.8805 34.2 33.3499V35.0499C34.2 35.5193 33.8195 35.8999 33.35 35.8999H31.65C31.1806 35.8999 30.8 35.5193 30.8 35.0499V33.3499ZM31.65 39.2999C31.1806 39.2999 30.8 39.6805 30.8 40.1499V41.8499C30.8 42.3193 31.1806 42.6999 31.65 42.6999H33.35C33.8195 42.6999 34.2 42.3193 34.2 41.8499V40.1499C34.2 39.6805 33.8195 39.2999 33.35 39.2999H31.65ZM37.6 33.3499C37.6 32.8805 37.9806 32.4999 38.45 32.4999H40.15C40.6195 32.4999 41 32.8805 41 33.3499V35.0499C41 35.5193 40.6195 35.8999 40.15 35.8999H38.45C37.9806 35.8999 37.6 35.5193 37.6 35.0499V33.3499ZM38.45 39.2999C37.9806 39.2999 37.6 39.6805 37.6 40.1499V41.8499C37.6 42.3193 37.9806 42.6999 38.45 42.6999H40.15C40.6195 42.6999 41 42.3193 41 41.8499V40.1499C41 39.6805 40.6195 39.2999 40.15 39.2999H38.45Z" fill="#DDDFDF"/>
<path fill-rule="evenodd" clip-rule="evenodd" d="M48.225 34.1999C47.5209 34.1999 46.95 34.7707 46.95 35.4749V52.8999C46.95 53.8388 47.7111 54.5999 48.65 54.5999H55.025C55.7292 54.5999 56.3 54.0291 56.3 53.3249C56.3 52.6207 55.7292 52.0499 55.025 52.0499H54.6V36.7499H55.025C55.7292 36.7499 56.3 36.1791 56.3 35.4749C56.3 34.7707 55.7292 34.1999 55.025 34.1999H48.225ZM49.075 40.1499C49.075 39.6805 49.4556 39.2999 49.925 39.2999H51.625C52.0945 39.2999 52.475 39.6805 52.475 40.1499V41.8499C52.475 42.3193 52.0945 42.6999 51.625 42.6999H49.925C49.4556 42.6999 49.075 42.3193 49.075 41.8499V40.1499ZM49.925 46.0999C49.4556 46.0999 49.075 46.4805 49.075 46.9499V48.6499C49.075 49.1193 49.4556 49.4999 49.925 49.4999H51.625C52.0945 49.4999 52.475 49.1193 52.475 48.6499V46.9499C52.475 46.4805 52.0945 46.0999 51.625 46.0999H49.925Z" fill="#DDDFDF"/>
<defs>
<linearGradient id="paint0_linear_379_4836" x1="6.75" y1="86.5" x2="85.75" y2="-5.5" gradientUnits="userSpaceOnUse">
<stop stop-color="#A685FA"/>
<stop offset="0.323723" stop-color="#A685FA" stop-opacity="0"/>
</linearGradient>
<linearGradient id="paint1_linear_379_4836" x1="81.75" y1="-10.5" x2="6.75" y2="82" gradientUnits="userSpaceOnUse">
<stop stop-color="#A685FA"/>
<stop offset="0.576615" stop-color="#A685FA" stop-opacity="0"/>
</linearGradient>
<linearGradient id="paint2_linear_379_4836" x1="3.25" y1="13.5" x2="71.75" y2="72" gradientUnits="userSpaceOnUse">
<stop stop-color="#A685FA"/>
<stop offset="0.323723" stop-color="#A685FA" stop-opacity="0"/>
</linearGradient>
<linearGradient id="paint3_linear_379_4836" x1="84.25" y1="86" x2="12.25" y2="35" gradientUnits="userSpaceOnUse">
<stop stop-color="#A685FA"/>
<stop offset="0.576615" stop-color="#A685FA" stop-opacity="0"/>
</linearGradient>
</defs>
</svg>
