<svg width="30" height="30" viewBox="0 0 30 30" fill="none" xmlns="http://www.w3.org/2000/svg">
<path fill-rule="evenodd" clip-rule="evenodd" d="M9.22818 1.084C10.7211 1.01527 11.1971 1 15 1C18.8029 1 19.2789 1.01655 20.7705 1.084C22.2622 1.15145 23.2804 1.38945 24.1713 1.73436C25.1042 2.08691 25.9505 2.638 26.6505 3.35073C27.3633 4.04945 27.9131 4.89455 28.2644 5.82873C28.6105 6.71964 28.8473 7.73782 28.916 9.22691C28.9847 10.7224 29 11.1984 29 15C29 18.8029 28.9835 19.2789 28.916 20.7718C28.8485 22.2609 28.6105 23.2791 28.2644 24.17C27.9131 25.1043 27.3624 25.9508 26.6505 26.6505C25.9505 27.3633 25.1042 27.9131 24.1713 28.2644C23.2804 28.6105 22.2622 28.8473 20.7731 28.916C19.2789 28.9847 18.8029 29 15 29C11.1971 29 10.7211 28.9835 9.22818 28.916C7.73909 28.8485 6.72091 28.6105 5.83 28.2644C4.89572 27.913 4.04923 27.3623 3.34945 26.6505C2.63721 25.9514 2.08604 25.1053 1.73436 24.1713C1.38945 23.2804 1.15273 22.2622 1.084 20.7731C1.01527 19.2776 1 18.8016 1 15C1 11.1971 1.01655 10.7211 1.084 9.22945C1.15145 7.73782 1.38945 6.71964 1.73436 5.82873C2.08656 4.89465 2.63815 4.04858 3.35073 3.34945C4.04951 2.63737 4.89515 2.0862 5.82873 1.73436C6.71964 1.38945 7.73782 1.15273 9.22691 1.084H9.22818ZM20.6573 3.604C19.1809 3.53655 18.738 3.52255 15 3.52255C11.262 3.52255 10.8191 3.53655 9.34273 3.604C7.97709 3.66636 7.23636 3.89418 6.74255 4.08636C6.08964 4.34091 5.62255 4.64255 5.13255 5.13255C4.66806 5.58443 4.31059 6.13454 4.08636 6.74255C3.89418 7.23636 3.66636 7.97709 3.604 9.34273C3.53655 10.8191 3.52255 11.262 3.52255 15C3.52255 18.738 3.53655 19.1809 3.604 20.6573C3.66636 22.0229 3.89418 22.7636 4.08636 23.2575C4.31036 23.8645 4.668 24.4156 5.13255 24.8675C5.58436 25.332 6.13545 25.6896 6.74255 25.9136C7.23636 26.1058 7.97709 26.3336 9.34273 26.396C10.8191 26.4635 11.2607 26.4775 15 26.4775C18.7393 26.4775 19.1809 26.4635 20.6573 26.396C22.0229 26.3336 22.7636 26.1058 23.2575 25.9136C23.9104 25.6591 24.3775 25.3575 24.8675 24.8675C25.332 24.4156 25.6896 23.8645 25.9136 23.2575C26.1058 22.7636 26.3336 22.0229 26.396 20.6573C26.4635 19.1809 26.4775 18.738 26.4775 15C26.4775 11.262 26.4635 10.8191 26.396 9.34273C26.3336 7.97709 26.1058 7.23636 25.9136 6.74255C25.6591 6.08964 25.3575 5.62255 24.8675 5.13255C24.4155 4.66809 23.8654 4.31063 23.2575 4.08636C22.7636 3.89418 22.0229 3.66636 20.6573 3.604V3.604ZM13.2118 19.3158C14.2105 19.7315 15.3225 19.7876 16.3579 19.4746C17.3933 19.1615 18.288 18.4986 18.889 17.5992C19.49 16.6998 19.7601 15.6197 19.6532 14.5432C19.5462 13.4668 19.0689 12.4609 18.3027 11.6973C17.8143 11.2092 17.2237 10.8354 16.5735 10.6029C15.9233 10.3704 15.2296 10.285 14.5424 10.3528C13.8553 10.4206 13.1916 10.6399 12.5994 10.9949C12.0071 11.3499 11.5009 11.8319 11.1173 12.406C10.7336 12.9801 10.4821 13.6322 10.3807 14.3152C10.2793 14.9983 10.3306 15.6953 10.5309 16.3561C10.7312 17.0169 11.0755 17.6251 11.5391 18.1369C12.0027 18.6487 12.574 19.0513 13.2118 19.3158ZM9.91164 9.91164C10.5798 9.24342 11.3731 8.71337 12.2462 8.35173C13.1193 7.9901 14.055 7.80397 15 7.80397C15.945 7.80397 16.8807 7.9901 17.7538 8.35173C18.6269 8.71337 19.4202 9.24342 20.0884 9.91164C20.7566 10.5798 21.2866 11.3731 21.6483 12.2462C22.0099 13.1193 22.196 14.055 22.196 15C22.196 15.945 22.0099 16.8807 21.6483 17.7538C21.2866 18.6269 20.7566 19.4202 20.0884 20.0884C18.7388 21.4379 16.9085 22.196 15 22.196C13.0915 22.196 11.2612 21.4379 9.91164 20.0884C8.56212 18.7388 7.80397 16.9085 7.80397 15C7.80397 13.0915 8.56212 11.2612 9.91164 9.91164V9.91164ZM23.792 8.87564C23.9576 8.71943 24.0902 8.53159 24.1818 8.32324C24.2735 8.11489 24.3225 7.89025 24.3258 7.66264C24.3291 7.43503 24.2867 7.20906 24.2012 6.99812C24.1156 6.78718 23.9885 6.59556 23.8276 6.4346C23.6666 6.27363 23.475 6.1466 23.2641 6.06102C23.0531 5.97544 22.8272 5.93306 22.5995 5.93638C22.3719 5.9397 22.1473 5.98865 21.9389 6.08034C21.7306 6.17203 21.5427 6.30459 21.3865 6.47018C21.0828 6.79222 20.9164 7.21997 20.9229 7.66264C20.9293 8.1053 21.1081 8.52803 21.4211 8.84107C21.7342 9.15412 22.1569 9.33284 22.5995 9.33929C23.0422 9.34574 23.47 9.17942 23.792 8.87564V8.87564Z" fill="#DDDFDF"/>
</svg>
