<svg width="30" height="30" viewBox="0 0 30 30" fill="none" xmlns="http://www.w3.org/2000/svg">
<path d="M19.7114 5.76352C21.1565 5.76352 22.4612 6.35974 23.3803 7.31696C24.5238 7.09386 25.6016 6.68734 26.5702 6.1243C26.1954 7.27157 25.3983 8.23405 24.3616 8.84294C25.376 8.72257 26.3472 8.45979 27.2484 8.06694C26.5728 9.05193 25.7223 9.9192 24.7403 10.6123C24.7494 10.8226 24.7547 11.0351 24.7547 11.2467C24.7547 17.7427 19.6987 25.235 10.4533 25.235C7.61555 25.235 4.97233 24.4185 2.74934 23.0243C3.14702 23.0709 3.54706 23.0942 3.94742 23.0939C6.30206 23.0939 8.47039 22.3087 10.191 20.9886C7.99028 20.9507 6.13281 19.5279 5.49572 17.576C5.80774 17.6349 6.1245 17.6646 6.44195 17.6646C6.89888 17.6646 7.34401 17.6051 7.76465 17.4922C5.46555 17.042 3.7327 15.0548 3.7327 12.6717V12.6087C4.41089 12.9773 5.18527 13.1986 6.01038 13.2242C4.661 12.3414 3.77381 10.8389 3.77381 9.13295C3.77381 8.23129 4.0222 7.38651 4.45464 6.66298C6.93302 9.63558 10.6366 11.5932 14.8146 11.7991C14.7284 11.4402 14.6838 11.061 14.6838 10.6797C14.6838 7.9641 16.9344 5.76352 19.7114 5.76352V5.76352ZM27.2483 8.06785H27.2527H27.2483ZM19.7113 4C16.2771 4 13.4319 6.52996 12.9938 9.79886C10.184 9.22965 7.62864 7.72967 5.7926 5.5291C5.62846 5.33222 5.42361 5.17393 5.19239 5.06532C4.96117 4.95671 4.7092 4.90042 4.45412 4.90039C4.40832 4.9004 4.36253 4.90217 4.31685 4.90568C4.03962 4.92807 3.77165 5.01668 3.53511 5.16419C3.29856 5.3117 3.10024 5.51388 2.95654 5.75399C2.34678 6.7742 2.0246 7.94283 2.02472 9.134C2.02472 9.92895 2.16637 10.7032 2.43487 11.4272C2.1489 11.7477 1.98406 12.167 1.98406 12.6097V12.6727C1.98406 14.4002 2.66137 16.0034 3.78599 17.2048C3.72128 17.5073 3.73571 17.8239 3.83453 18.1272C4.2224 19.3172 4.92857 20.3428 5.84419 21.124C5.22938 21.262 4.59495 21.3317 3.94734 21.3317C3.60497 21.3317 3.27178 21.3127 2.95652 21.2739C2.88656 21.2651 2.81747 21.262 2.74795 21.262C2.01335 21.262 1.34654 21.7289 1.09905 22.441C0.827511 23.2214 1.12881 24.0865 1.8249 24.5234C4.40824 26.1442 7.39206 27 10.4529 27C20.4013 27 26.3856 19.147 26.5019 11.476C27.3183 10.795 28.0395 10.0057 28.6458 9.12953C28.8761 8.82467 29.0005 8.45191 29 8.06871C29 7.46863 28.7023 6.93822 28.2488 6.61941C28.4451 5.94085 28.2212 5.2063 27.6747 4.75745C27.3555 4.49555 26.9641 4.3624 26.5706 4.3624C26.2639 4.36211 25.9625 4.44348 25.697 4.59829C25.1189 4.93429 24.5006 5.20015 23.8495 5.39154C22.6715 4.49781 21.2111 4.00003 19.7113 4V4Z" fill="#DDDFDF"/>
</svg>
