<svg width="30" height="30" viewBox="0 0 30 30" fill="none" xmlns="http://www.w3.org/2000/svg">
<path fill-rule="evenodd" clip-rule="evenodd" d="M15 1C7.26796 1 1 7.26803 1 15C1 22.732 7.26796 29 15 29C22.732 29 29 22.732 29 15C29 7.26803 22.732 1 15 1V1ZM13.5496 26.9127C10.8934 26.5946 8.43568 25.4056 6.51466 23.4846C4.24814 21.2181 2.99998 18.2046 2.99998 14.9993C2.99998 12.1138 4.01202 9.38424 5.86736 7.21457C5.91515 7.78783 6.03314 8.40242 6.00292 8.84174C5.89253 10.4433 5.73449 11.4457 6.67195 12.7969C7.03717 13.3232 7.12689 14.0776 7.30465 14.6867C7.4785 15.2827 8.17305 15.5953 8.65208 15.9624C9.61855 16.7034 10.5432 17.5647 11.568 18.2168C12.2444 18.6473 12.6668 18.8614 12.4688 19.6868C12.3094 20.3505 12.265 20.7594 11.9215 21.3508C11.8168 21.5313 12.3171 22.6914 12.4836 22.858C12.9883 23.3626 13.4891 23.8255 14.0392 24.2798C14.892 24.9845 13.9563 25.9001 13.5496 26.9127V26.9127ZM23.4852 23.4852C21.7599 25.2105 19.6016 26.3449 17.2555 26.7888C17.588 25.9665 18.18 25.236 18.7292 24.8125C19.2069 24.4439 19.8052 23.735 20.0547 23.1734C20.304 22.6126 20.6343 22.1264 20.9685 21.6107C21.444 20.8771 19.7961 19.7708 19.2621 19.5389C18.0603 19.0172 17.1557 18.3133 16.0878 17.5618C15.3268 17.0264 13.782 17.8414 12.923 17.4664C11.7463 16.9526 10.777 16.0599 9.75424 15.2897C8.69886 14.4949 8.74987 13.5683 8.74987 12.3957C9.57655 12.4262 10.7525 12.1669 11.3014 12.8317C11.4746 13.0415 12.07 13.9788 12.4686 13.6457C12.7943 13.3736 12.2273 12.2828 12.1178 12.0264C11.7809 11.2379 12.8854 10.9303 13.4507 10.3956C14.1884 9.69807 15.7708 8.60405 15.6457 8.10402C15.5207 7.60399 14.0624 6.1873 13.2059 6.40834C13.0776 6.44145 11.9475 7.6264 11.7291 7.81231C11.7349 7.42556 11.7407 7.03888 11.7466 6.65213C11.7503 6.40793 11.2911 6.15728 11.3124 5.99978C11.3663 5.60172 12.4743 4.87931 12.7499 4.56229C12.5568 4.44161 11.8979 3.87562 11.6984 3.95867C11.2156 4.15992 10.6702 4.29858 10.1874 4.49976C10.1874 4.3323 10.167 4.175 10.1428 4.01965C11.1104 3.59124 12.1342 3.29334 13.1925 3.13442L14.1405 3.51539L14.8098 4.30968L15.4777 4.99844L16.0616 5.18657L16.9891 4.3119L16.7499 3.68749V3.12621C18.5841 3.39262 20.3162 4.07687 21.8331 5.13198C21.5618 5.15628 21.2635 5.19619 20.927 5.239C20.7881 5.15689 20.6098 5.1196 20.4582 5.06245C20.8978 6.00759 21.3563 6.93966 21.8222 7.87228C22.3198 8.8685 23.4236 9.93708 23.6175 10.9887C23.8459 12.2282 23.6874 13.3542 23.8124 14.8125C23.9327 16.2169 25.3957 17.8125 25.3957 17.8125C25.3957 17.8125 26.0713 18.0427 26.6331 17.9625C26.1094 20.0344 25.0357 21.9346 23.4852 23.4852V23.4852Z" fill="#DDDFDF"/>
</svg>
