<svg width="30" height="30" viewBox="0 0 30 30" fill="none" xmlns="http://www.w3.org/2000/svg">
<path d="M29 14.9138C29 14.8461 29 14.7692 28.9969 14.6799C28.9938 14.4306 28.9875 14.1505 28.9813 13.852C28.9563 12.9932 28.9125 12.1376 28.8438 11.3312C28.75 10.2201 28.6125 9.29363 28.425 8.59803C28.2271 7.87211 27.8393 7.21006 27.3002 6.67804C26.7612 6.14603 26.0898 5.76268 25.3531 5.56633C24.4687 5.33241 22.7375 5.18775 20.3 5.09849C19.1406 5.0554 17.9 5.0277 16.6594 5.01231C16.225 5.00616 15.8219 5.00308 15.4594 5H14.5406C14.1781 5.00308 13.775 5.00616 13.3406 5.01231C12.1 5.0277 10.8594 5.0554 9.7 5.09849C7.2625 5.19083 5.52812 5.33549 4.64687 5.56633C3.91 5.7622 3.23834 6.14538 2.6992 6.67747C2.16006 7.20957 1.77238 7.87187 1.575 8.59803C1.38438 9.29363 1.25 10.2201 1.15625 11.3312C1.0875 12.1376 1.04375 12.9932 1.01875 13.852C1.00937 14.1505 1.00625 14.4306 1.00312 14.6799C1.00312 14.7692 1 14.8461 1 14.9138V15.0862C1 15.1539 1 15.2308 1.00312 15.3201C1.00625 15.5694 1.0125 15.8495 1.01875 16.148C1.04375 17.0068 1.0875 17.8624 1.15625 18.6688C1.25 19.7799 1.3875 20.7064 1.575 21.402C1.975 22.8763 3.15 24.0397 4.64687 24.4337C5.52812 24.6676 7.2625 24.8122 9.7 24.9015C10.8594 24.9446 12.1 24.9723 13.3406 24.9877C13.775 24.9938 14.1781 24.9969 14.5406 25H15.4594C15.8219 24.9969 16.225 24.9938 16.6594 24.9877C17.9 24.9723 19.1406 24.9446 20.3 24.9015C22.7375 24.8092 24.4719 24.6645 25.3531 24.4337C26.85 24.0397 28.025 22.8793 28.425 21.402C28.6156 20.7064 28.75 19.7799 28.8438 18.6688C28.9125 17.8624 28.9563 17.0068 28.9813 16.148C28.9906 15.8495 28.9938 15.5694 28.9969 15.3201C28.9969 15.2308 29 15.1539 29 15.0862V14.9138V14.9138ZM26.75 15.0739C26.75 15.1385 26.75 15.2093 26.7469 15.2924C26.7438 15.5325 26.7375 15.7972 26.7313 16.0834C26.7094 16.9021 26.6656 17.7208 26.6 18.4811C26.5156 19.4721 26.3969 20.2847 26.25 20.8295C26.0563 21.5405 25.4875 22.1037 24.7687 22.2915C24.1125 22.4638 22.4594 22.6023 20.2125 22.6854C19.075 22.7285 17.85 22.7562 16.6281 22.7716C16.2 22.7778 15.8031 22.7809 15.4469 22.7809H14.5531L13.3719 22.7716C12.15 22.7562 10.9281 22.7285 9.7875 22.6854C7.54063 22.5993 5.88437 22.4638 5.23125 22.2915C4.5125 22.1006 3.94375 21.5405 3.75 20.8295C3.60313 20.2847 3.48438 19.4721 3.4 18.4811C3.33438 17.7208 3.29375 16.9021 3.26875 16.0834C3.25938 15.7972 3.25625 15.5294 3.25313 15.2924C3.25313 15.2093 3.25 15.1354 3.25 15.0739V14.9261C3.25 14.8615 3.25 14.7907 3.25313 14.7076C3.25625 14.4675 3.2625 14.2028 3.26875 13.9166C3.29063 13.0979 3.33438 12.2792 3.4 11.5189C3.48438 10.5279 3.60313 9.7153 3.75 9.17051C3.94375 8.45953 4.5125 7.89628 5.23125 7.70853C5.8875 7.53616 7.54063 7.39766 9.7875 7.31456C10.925 7.27147 12.15 7.24377 13.3719 7.22838C13.8 7.22222 14.1969 7.21914 14.5531 7.21914H15.4469L16.6281 7.22838C17.85 7.24377 19.0719 7.27147 20.2125 7.31456C22.4594 7.40074 24.1156 7.53616 24.7687 7.70853C25.4875 7.89935 26.0563 8.45953 26.25 9.17051C26.3969 9.7153 26.5156 10.5279 26.6 11.5189C26.6656 12.2792 26.7063 13.0979 26.7313 13.9166C26.7406 14.2028 26.7438 14.4706 26.7469 14.7076C26.7469 14.7907 26.75 14.8646 26.75 14.9261V15.0739ZM12.2188 19.1243L19.4688 14.9692L12.2188 10.8757V19.1243Z" fill="#DDDFDF"/>
</svg>
